<?xml version="1.0" encoding="UTF-8" standalone="no"?>
<!-- Created with Inkscape (http://www.inkscape.org/) -->

<svg
   xmlns:dc="http://purl.org/dc/elements/1.1/"
   xmlns:cc="http://creativecommons.org/ns#"
   xmlns:rdf="http://www.w3.org/1999/02/22-rdf-syntax-ns#"
   xmlns:svg="http://www.w3.org/2000/svg"
   xmlns="http://www.w3.org/2000/svg"
   xmlns:sodipodi="http://sodipodi.sourceforge.net/DTD/sodipodi-0.dtd"
   xmlns:inkscape="http://www.inkscape.org/namespaces/inkscape"
   width="404.02628"
   height="118"
   viewBox="0 0 106.89862 31.220832"
   version="1.1"
   id="svg8"
   inkscape:version="0.92.2 (5c3e80d, 2017-08-06)"
   sodipodi:docname="characters.svg">
  <defs
     id="defs2" />
  <sodipodi:namedview
     id="base"
     pagecolor="#ffffff"
     bordercolor="#666666"
     borderopacity="1.0"
     inkscape:pageopacity="0.0"
     inkscape:pageshadow="2"
     inkscape:zoom="2.8"
     inkscape:cx="219.23115"
     inkscape:cy="74.91334"
     inkscape:document-units="mm"
     inkscape:current-layer="layer1"
     showgrid="false"
     inkscape:window-width="1920"
     inkscape:window-height="1017"
     inkscape:window-x="-8"
     inkscape:window-y="-8"
     inkscape:window-maximized="1"
     fit-margin-top="0"
     fit-margin-left="0"
     fit-margin-right="0"
     fit-margin-bottom="0"
     units="px" />
  <metadata
     id="metadata5">
    <rdf:RDF>
      <cc:Work
         rdf:about="">
        <dc:format>image/svg+xml</dc:format>
        <dc:type
           rdf:resource="http://purl.org/dc/dcmitype/StillImage" />
        <dc:title />
      </cc:Work>
    </rdf:RDF>
  </metadata>
  <g
     inkscape:label="Layer 1"
     inkscape:groupmode="layer"
     id="layer1"
     transform="translate(88.098186,-120.56854)">
    <path
       inkscape:connector-curvature="0"
       id="path819"
       style="font-style:normal;font-weight:normal;font-size:medium;line-height:1.25;font-family:sans-serif;letter-spacing:0px;word-spacing:0px;fill:#d35fbb;fill-opacity:1;stroke:none;stroke-width:0.26458332"
       d="m -49.457985,123.29556 h 29.992878 l -0.02834,2.9993 h -4.226268 l -0.211225,22.3583 q -0.02447,2.5903 -2.478435,2.5903 h -4.635263 l -0.516991,-2.99931 h 3.95361 q 0.545322,0 0.550473,-0.5453 l 0.20221,-21.40399 h -22.630989 z m 17.797379,20.99503 h -3.135616 l 0.01159,-1.22698 h -7.498221 l -0.02447,2.59025 h -3.135621 l 0.137812,-14.58742 h 13.769458 z m -3.035155,-10.63385 h -7.49822 l -0.0644,6.81658 h 7.498221 z" />
    <path
       inkscape:connector-curvature="0"
       id="path821"
       style="font-style:normal;font-weight:normal;font-size:medium;line-height:1.25;font-family:sans-serif;letter-spacing:0px;word-spacing:0px;fill:#d35fbb;fill-opacity:1;stroke:none;stroke-width:0.26458332"
       d="m 3.3536,147.28984 q -0.53633,-0.9543 -2.289287,-2.99925 l 2.330502,-1.36332 q 2.028206,1.77228 2.563247,2.86292 z m -9.658918,-2.18128 q 0.81155,0.68163 -0.416737,0.81797 -0.977499,2.45396 -3.045656,4.90792 l -2.709878,-1.77228 q 1.929244,-2.18129 3.45851,-5.31693 z M 4.399539,123.15922 h 10.906524 l -0.02061,2.18129 h -4.77158 l -1.529275,3.13564 h 9.815833 l -0.02061,2.18128 h -31.356189 l 0.02061,-2.18128 h 9.134194 l -1.061029,-3.13564 h -4.635263 l 0.02061,-2.18129 H 1.672908 l 0.02318,-2.45395 h 2.590294 q 1.089406,0.13609 0.12885,0.81797 z m -5.094483,5.31693 h 6.816577 l 1.529276,-3.13564 h -9.406872 z m 16.700297,21.67666 q -1.611517,-2.59029 -4.17734,-5.18059 l 2.469414,-1.63599 q 2.704736,2.31763 4.450013,5.18059 z m -17.523606,-6.68024 q 1.089352,0.13658 0.128848,0.81802 l -0.03091,3.27193 q -0.0103,1.09064 0.944003,1.09064 h 8.725191 q 0.681681,0 0.686833,-0.5453 l 0.155415,-2.04499 2.721479,0.54534 -0.155415,2.04495 q -0.160567,2.5903 -2.614766,2.5903 H -1.727714 q -2.453973,0 -2.432077,-2.31763 l 0.05152,-5.45326 z m 11.907196,-4.90792 H -4.880185 l -0.01674,1.77233 h 15.269129 z m 2.280271,3.95361 H -7.235168 l 0.09531,-10.0885 h 19.904382 z m -2.259663,-6.13489 0.01674,-1.77233 H -4.842837 l -0.01674,1.77233 z" />
    <g
       id="g827"
       transform="translate(-75.1961)">
      <path
         inkscape:connector-curvature="0"
         id="path851"
         d="m -12.620453,121.93224 h 7.7708838 l 0.4131113,-0.40876 2.0294935,1.63598 q 0.4036166,0.54535 -0.4139206,0.54535 l -2.9505484,9.27049 q 3.6229787,6.13494 2.6338974,9.81588 -0.4255119,1.77227 -1.6604595,2.59029 -1.0983704,0.81797 -3.8237134,0.68164 l -0.2482014,-2.5903 q 2.8603913,0.27267 3.022487,-2.45396 0.1661997,-3.13559 -2.6519291,-7.90722 l 2.3987634,-8.58885 h -3.8172738 l -0.2575922,27.26626 h -2.726631 z"
         style="font-style:normal;font-weight:normal;font-size:medium;line-height:1.25;font-family:sans-serif;letter-spacing:0px;word-spacing:0px;fill:#d35fbb;fill-opacity:1;stroke:none;stroke-width:0.26458332" />
      <path
         inkscape:connector-curvature="0"
         id="path849"
         d="m 6.9216637,120.56854 -0.032212,3.40962 h -8.1785945 l -0.024464,2.58952 h 8.1785945 l -0.021905,2.31863 H 0.16303456 L 0.04841571,141.01876 H 6.4551184 c -2.5723258,2.90841 -6.04815331,5.31572 -10.4288037,7.22433 l 1.0626418,2.99955 c 3.83358808,-1.72688 7.0362617,-4.04253 9.6085875,-6.95094 l -0.070833,7.49768 h 2.7261982 l 0.073415,-7.77103 c 2.6082638,2.90836 5.3626228,4.95177 8.2598248,6.13331 l 1.114282,-2.7262 c -4.161088,-2.09039 -7.230199,-4.22537 -9.2090476,-6.4067 h 6.9533946 l 0.114619,-12.13245 H 9.5692814 l 0.021905,-2.31863 h 8.9987286 l 0.02446,-2.58952 H 9.6156503 l 0.024487,-2.59198 c 0.6406737,-0.45446 0.5972707,-0.7266 -0.1288524,-0.81764 z m -4.053021,10.49723 h 3.9538506 l -0.025755,2.7262 H 2.8428875 Z m 6.6800487,0 h 4.3639176 l -0.02576,2.7262 H 9.5229362 Z m -6.7264175,4.90816 H 6.7761244 L 6.749078,138.8368 H 2.7952275 Z m 6.6800487,0 H 13.86624 l -0.02705,2.86287 H 9.4752762 Z"
         style="font-style:normal;font-weight:normal;font-size:medium;line-height:1.25;font-family:sans-serif;letter-spacing:0px;word-spacing:0px;fill:#d35fbb;fill-opacity:1;stroke:none;stroke-width:0.26458332" />
    </g>
  </g>
</svg>
