<svg viewBox="0 0 236.53 89.208" xml:space="preserve" xmlns="http://www.w3.org/2000/svg"><path d="M196.6016.004c-.9537.0515-.5767.6249.5175 2.2948.4207.642.732 1.3476.9336 2.0586.5187-.3785 1.053-.4701 1.4258-.0605.4264.4685.6656 1.3518.5137 2.4258-.1547 1.0932-.7638 1.4646-2.0195 1.6894-.0655 1.0095.435 1.2725 1.875 1.3242 4.2771.1538-3.749 2.8722-10.9864 3.7207-6.7445.7906-6.745.7896-2.4629 4.795 4.2471 3.9726 4.5373 5.4043 1.0977 5.4043-.9847 0-1.871 1.0938-2.4785 2.5195.4448.5998.957 1.2266.957 1.7832 0 .745-.7417 1.6027-1.6992 1.9668-.0226.0086-.0301.0243-.0527.0332.01 1.0467.2398 1.9703.7773 2.5078.691.691 1.6083.715 3.9512-.3535-.745-1.804-.1599-2.8692 2.6777-2.8692.9641 0 1.1193.3808 1.6797.5782.7434-.4117 1.3106-.708 2.209-1.2188 2.1608-1.2286 3.9246-2.1671 5.3828-2.8828-.0207-.035-.088-.0184-.1074-.0547-.5762-1.0766-.5666-1.7178.039-2.4473.346-.4169.6312-.6041 1.047-.5273.4156.0768.9628.4175 1.83 1.0586.3222.2382.2365.3659.4804.586 1.279-.358 1.5716-.003.8731 1.0644.0004.0008-.0004.0012 0 .002.5557.9813.3814 1.7226-1.3945 1.7226-.0057 0-.0061-.0058-.0118-.0059-.048.0523-.069.085-.119.1387-2.197 2.3551-5.2218 4.2036-10.1231 6.0195-.0678.0636-.0117.0917-.084.1563-1.1448 1.0228-1.9642 2.394-1.834 3.0703.2295 1.1914-1.27 1.7046-2.2168.7578-.2558-.2557-.113-.8904.3184-1.4101.333-.4012.3765-.8399.246-1.3594-3.6404 1.1399-8.0707 2.304-13.7285 3.6133-5.7383 1.3278-9.6688 2.2275-12.4726 2.916.162.1933.1457.2989.375.543.8846.9416 1.3967 2.0532 1.1387 2.4707-.5643.913-5.0886 1.0197-5.6368.1328-.213-.3446.0817-1.0173.6563-1.4942.3646-.3026.276-.5555.3574-.834-3.7937 1.106-2.7609 1.5-1.0566 2.8907 1.3447 1.0969 2.9454 1.6924 4.9453 1.7949.7946-.3893 1.775-1.0266 2.4648-1.9082.9558-1.2218 1.8884-1.8381 2.8164-1.8516.928-.0134 1.8516.5772 2.791 1.7715.175.2224.0927.2828.2364.4863.8038-.2635 1.6311-.548 2.5156-.8808 4.3913-1.653 6.308-2.3131 6.8828-1.879.3915-.656 1.0275-1.0813 1.6934-.6698.9407.5814.093 2.494-1.1055 2.494-.295 0-.3563-.3402-.5371-.5546-.1045.3659-.2452.7827-.4414 1.2988-.8006 2.1056-1.0187 4.3776-.7754 6.5957.9472.262 1.3457.7718.7207 1.9395-.081.1515-.228.0756-.3223.2012.1775.7206.401 1.4247.668 2.1093.0455-.0514.0363-.1925.0918-.2246.7028-.4056 2.1306.7019 2.3164 2.3223.0614.5358-.2315 1.0593-.3945 1.5937 2.0764 2.8284 4.9838 4.725 8.1914 4.6504 6.2414-.1456 7.3419.5396 7.3672 4.584.008 1.345 1.2233 3.7074 2.7011 5.25 2.7017 2.82 5.3125 3.6917 5.3125 1.7735 0-3.8836 7.8787.971 7.9688 4.9101.1268 5.5423-19.6395-.6448-22.7305-7.1152-3.4408-7.2016-6.5307-8.8177-10.1816-5.3203-2.6695 2.5575-2.921 2.6163-3.877.9082-.9079-1.6223-1.096-1.4898-1.6738 1.162-.358 1.6423-1.3584 4.6694-2.2246 6.7266-1.8117 4.3024-.7935 10.0368 1.873 10.5508 1.1896.229 2.2376-1.8035 4.2305-8.1953 3.318-10.642 3.7336-10.861 7.248-3.832 1.8417 3.6834 4.3742 6.533 7.7793 8.6914.4108-.1617.6752-.4473 1.2325-.4473 1.9562 0 2.103.948 1.3261 1.8613 3.399 1.626 7.5204 2.7308 12.5293 3.3829 3.1264.407 6.037.3751 8.5332.037.1843-.519.2472-1.0268.5489-1.4394.4913-.672.7514-1.0056 1.1132-.961.362.0448.825.4672 1.7227 1.3106.1598.1501.062.1841.1934.3184 5.0865-1.606 6.7323-4.7932 1.4804-7.4727-4.21-2.1478-11.0918-7.7201-11.0918-8.9824 0-2.0826 11.0382-8.2776 12.5352-7.0352 2.0119 1.6697 1.388 3.2826-1.5352 3.9727-4.2597 1.0056-3.1216 2.551 3.4493 4.6875 7.4398 2.4189 8.9105 1.7437 8.369-3.8418-.6079-6.273-5.5807-8.4853-14.4081-6.5723.2511.2005.6604.2728.5762.707-.3147 1.6225-1.3532 1.771-3.2325.463-.1768-.1231-.1309-.2939-.2773-.4278-1.4293.414-2.9359.9112-4.5313 1.5078-7.5547 2.825-7.555 2.8236-10.7109.4903-3.8284-2.8305-3.3452-4.0156 1.6348-4.0156.0661 0 .1313-.0098.1972-.0118.4922-.5222 1.0126-1.2295 1.3828-1.1582.3842.074.4826.4981.7168.7813 7.352-2.4606 12.8333-16.0156 7.7032-21.5215-4.2286-4.5389-16.261-2.3421-23.629 4.3144-4.981 4.5002-5.2402 4.483-5.2402-.3554 0-5.2834 5.6663-6.9105 31.3868-9.0137.5249-.043.7448-.0708 1.2304-.1113-.4313-.3639-.746-1.3221-.746-3.2149 0-.9497.1691-1.0957.246-1.6425-.819.0835-1.682.1826-2.6172.3027-5.295.6802-5.776.6454-4.1074-.5918-.0825-.104-.1575-.0596-.2559-.2188-.57-.9225.9222-2.7968 2.2266-2.7968.3733 0 .3883.2444.5371.4023.9987-1.9132.347-3.9647-1.9648-6.0762a9.1778 9.1778 0 0 1-.9961-1.0644c-.7753-.204-1.4734.0109-1.754 1.084-.3923 1.5003-2.2315 1.914-2.998.6738-.731-1.1831.2138-2.795 1.6387-2.795.7973 0 1.7023-.8953 2.3184-2.2948.6399-1.4536 1.418-2.268 2.334-2.4434.5384-.1031 1.2266.478 1.8613.8164.3936-.3084.7902-.6534 1.1445-1.045 2.094-2.3136.67-5.0175-2.6406-5.0175-1.125 0-2.7606-1.4437-3.9785-3.5078-2.0605-3.4923-2.913-3.8994-10.1973-4.879-.9582-.1287-1.6765-.225-2.1894-.2577v-.002c-.1924-.0122-.356-.0152-.4922-.0078zm18.3535 14.7167c-.7019.5499-1.3915.9375-1.795.9375.4035 0 1.0931-.3876 1.795-.9375zm-7.1738 46.5469c-.6857.2295-1.3886.356-2.0997.377.7111-.021 1.414-.1475 2.0996-.377zm14.244 1.664zm-2.3769 26.0157c1.3154-.1782 2.5183-.438 3.5703-.7696-1.052.3317-2.2547.5914-3.5703.7696zm-21.0625-3.42zm-14.543-26.1582c-.8132-1.1077-1.492-2.3543-2.0136-3.6914.5216 1.337 1.2004 2.5837 2.0137 3.6914zm-2.6816-5.8007c-.1714-.6963-.3145-1.4005-.3945-2.1153.0796.715.2231 1.419.3945 2.1153zm-8.6308-8.545c-3.392 1.1123-6.1016 1.615-8.3086 1.502 2.207.113 4.9165-.3897 8.3086-1.502zm12.287-18.8476c-.4986 1.17-.8062 2.5547-.7948 3.7812-.0114-1.2265.2962-2.6111.7949-3.7812zM197.9728 8.412c.0202-.312.0905-.6902.209-1.1621-.1185.4719-.1888.85-.209 1.1621zm4.7812-7.2715c.6934.245 1.2422.8298 1.2422 1.6094 0 1.7978-2.9884 2.3733-3.6309.6992-.2441-.6365-.1158-1.4837.2832-1.8828.5761-.576 1.4122-.6708 2.1055-.4258zm4.4356 3.0215c.7904.4885.271 1.7598-.7188 1.7598-.3429 0-.8056-.2963-1.0293-.6582-.5227-.8458.8066-1.6834 1.748-1.1016zm3.7675 6.1094c.4513.14.4572.5656.334 1.375-.1534 1.0079-1.1323 1.7977-3.0527 2.4629-3.4012 1.1782-3.0091 1.144-3.5254.3086-.7887-1.2761.9787-3.3574 3.2344-3.8086 1.6612-.3322 2.5585-.478 3.0097-.338zm-10.8047 1.3047c.3659 0 .6641.4775.6641 1.0605 0 1.093-.833 1.4035-1.6289.6074-.5648-.5646.0736-1.668.9648-1.668zm-4.6132 3.7988c.6351.2437 1.0368.7918.8945 1.2188-.3462 1.0385-4.68 2.8251-5.1211 2.1113-.6054-.9796 2.9835-3.807 4.2266-3.3301zm15.9804.5957c-.0147.007-.0286.0142-.043.0215.0143-.0072.0284-.0145.043-.0215zm-18.836 7.1934c.6242.2335 1.082.7302.8888 1.3105-.3934 1.1815-2.3932 1.5182-3.0176.5078-.2745-.4441-.1662-1.1404.2402-1.5469.475-.4749 1.2646-.505 1.8887-.2714zm21.8302 3.6582c-.4394.8406-1.1937 1.6553-2.2715 2.4355 1.0777-.7802 1.8321-1.595 2.2715-2.4355zm8.8574 2.6172c-.685.0011-1.4454.0321-2.2617.084.7874.9607.8627 1.5123.1074 3.2187-.6363 1.4374-1.1773 1.7918-1.6465 1.8066 11.0562-.929 12.0675-1.3 9.9258-3.4414-.3937-.3937-.8927-.7007-1.4805-.9531-.2454.407-.345.7761-.7832 1.2227-2.3148 2.3596-2.4975 2.4224-3.6582 1.2617-.9451-.9452-.7783-2.1225-.121-3.1953-.0296 0-.0524-.004-.0821-.004zm.082.0039c2.017.0031 3.4724.2428 4.5625.7109-1.0901-.4681-2.5456-.7078-4.5625-.711zm-2.6445.1054c-.6529.0452-1.3306.0982-2.0723.1739.7425-.0758 1.419-.129 2.0723-.1739zm-27.5098.2793c-1.733.9596-3.2971 1.8056-4.3437 2.2832 1.0464-.4775 2.6117-1.3243 4.3437-2.2832zm6.838 4.7578c.3682.1862.6796.583.6796 1.0625 0 .7594-.957.8832-1.6289.213-.2487-.2486-.2808-.7315-.0703-1.0723.2259-.3655.6513-.3893 1.0195-.2032zm3.2167 5.6582c2.073-.4358 3.679.7293 3.3809 2.0157 1.1216-.4144 1.9716-.6322 2.5488-.582 1.271.1102 1.3652 1.4547 1.0117 4.2109.774-.9923 1.8278-1.8008 3.0059-1.8008 2.2628 0 2.331.6223.3945 3.58-1.7392 2.6564-2.8976 3.3368-3.9258 2.3087-.0883-.0884-.0501-.236-.1172-.336-1.047 4.7315-2.6936 6.4383-6.039 6.6504-1.925.1222-4.7375.6918-6.25 1.2676-1.5125.5758-2.75.6458-2.75.1543 0-1.2146 5.8553-4.7396 9.3008-5.5996 3.0696-.7662 3.3232-3.0354.5351-4.791-1.2229-.77-3.1482-.5446-7.25.8496-5.5103 1.873-6.5845 3.0834-4.543 5.125.7565.7564.2727 1.7676-.6562 2.4355.7077.2233 1.3945.5486 1.3945 1.0762 0 1.2821-3.5332 1.8534-4.2539.6875-.21-.34-.0305-.7786.1563-1.1582-.0926-.0237-.1851-.0454-.2754-.08-4.1233-1.5825 2.1434-10.582 7.3984-10.625 1.4818-.0123 4.6553-.9123 7.0528-2 .4005-.1819.7285-.3207 1.0879-.4786-1.7487.1738-3.7438.0914-4.1348-.541-.6445-1.0427.3145-1.8197 2.9277-2.3692zm-27.6308.6817c.7268-.0557 1.416.2746 1.416 1.041 0 .5831-.7431 1.1662-1.6524 1.295-1.282.1815-1.5975-.0566-1.4043-1.0606.1499-.7779.9138-1.2198 1.6407-1.2754zm-12.088.0976c-1.2644.3106-2.2954.5813-3.0898.8125.795-.2315 1.8233-.5013 3.0899-.8125zm18.297 5.4512c.0744-.0745.1723.0247.2851.3066.2042.5102.1782 1.1206-.0566 1.3555-.2349.2348-.4018-.1827-.3711-.9277.0169-.4117.068-.6599.1425-.7344zm6.162 12.8047c1.5329 0 1.3214 2.757-.2343 3.0566-1.0037.1933-1.2402-.1223-1.0586-1.4043.1287-.9092.7098-1.6523 1.293-1.6523zm13.4297 11.6621c.3888 0 .707.3183.707.707 0 .3887-.3182.707-.707.707-.3887 0-.707-.3183-.707-.707 0-.3887.3183-.707.707-.707zm-22.4062 2.211c1.7164-.2419 2.496 1.2221.42 2.8183-2.1 1.6147-2.6763 1.6448-3.2423.17-.2731-.7118.0635-1.5327.8653-2.1192.7088-.5183 1.3849-.7886 1.957-.8692zm27.2207.1328c.5102-.2042 1.1206-.1777 1.3555.0566.2349.2349-.1827.4018-.9278.371-.8233-.0336-.9915-.202-.4277-.4276zm7.5547 1.8984c.583 0 1.0605.3182 1.0605.707 0 .3887-.4774.7051-1.0605.7051s-1.0606-.3164-1.0606-.705c0-.3889.4775-.7071 1.0606-.7071zm-22.1094 3.5527c.2944-.0588.5527.096.5527.5098 0 .2916-.3595.6511-.7968.7969-.4373.1458-.675-.094-.5293-.5313.1478-.4434.479-.7165.7734-.7754zM43.3867 2.295c-.353.0124-.4701.667-.5273 1.8222.0571-1.154.175-1.8066.5273-1.8203v-.002zm0 .0019c.2837-.01.7308.3962 1.4024 1.2129-.6716-.8167-1.1187-1.223-1.4024-1.213zm-.5273 1.8203c-.0115.2323-.0235.4538-.0313.7285-.013.458-.0392.9141-.0683 1.3691.4679-.4024.9855-.832 1.3847-1.8496.0975-.2485.3328-.4556.5196-.6972-.7592-.0297-1.3795.194-1.8047.4492zm4.0078 2.1601c-1.8776 1.3056-2.736 2.3742-3.4102 4.7422-.4796 1.6851-1.6361 3.7875-2.627 5.0313-.0007.001-.0011.003-.0019.0039l-.0097.0273c1.2837.1865 2.9779 3.6487 2.4218 5.0977-.4152 1.082 4.1862 2.8144 5.9707 2.248 1.4997-.476 2.9479 1.1047 2.6055 2.588 2.2067-.7554 4.7485-1.3987 7.7266-1.9942 3.8496-.77 3.7857-3.1046-.1446-5.3106-2.4398-1.3694-3.153-1.3488-7.3984.2246-5.7828 2.1432-5.8823 2.0486-3.4785-3.3203 1.2366-2.7618 1.675-3.7706 1.0254-5.2675.2752.4676.2147 1.2022-.5762 2.0761-1.3714 1.5153-1.961 1.7227-2.7246.959-.914-.9139-.4548-2.3136 1.0176-3.1015 1.0607-.5678 1.8242-.4677 2.211-.0743-.3872-.828-1.0763-1.8075-2.1642-3.3222-.1682-.2343-.2877-.392-.4433-.6075zM17.705 12.7012c-2.0085.0283-4.6412 1.0598-7.7266 3.2539-2.6749 1.9023-5.8777 3.7678-7.1152 4.1465-3.9932 1.2219.3876 6.5546 5.3847 6.5546 1.5313 0 2.3653.5802 2.3653 1.6485 0 .9075 1.1943 4.0072 2.6523 6.8867 3.1601 6.241.2907 13.036-3.1523 7.4648-2.1285-3.444-2.073-.0912.0683 4.1348.158.3117.2754.552.4141.8281.025-.026.0214-.0467.0469-.0722.7535-.7535 1.517-.8154 1.9219-.4864.4048.3291.4523 1.0496-.2247 1.8653-.2417.2913-.5714.3387-.877.5156 1.1715 2.6861.7408 3.574-1.4042 7.5996-4.331 8.128-4.5439 7.9403-4.4395-3.8906.085-9.6217-.877-17.6987-2.2754-19.0977-2.852-2.852-4.0822 19.1934-2.873 33.1504.2023-.3328.236-.6827.8906-.9316 1.3163-.5005 2.1454-.72 2.6114-.6387.466.0813.5695.4633.4355 1.17-.2335 1.2313-2.74 1.7116-3.877 1.0429.3702 3.9401.9327 7.2079 1.7305 8.9297 3.8625 8.3362 4.5252 7.515 5.8848-7.3047.2442-2.6613.9089-5.553 1.746-8.0937-.0764-.1556-.3609-.0521-.2968-.3614.107-.5165.4463-.7653.7578-.9082 1.2747-3.4293 2.8113-5.9452 3.9219-5.7344.5946.1131 2.1899-2.428 3.6387-5.709-.0744-.0674-.1898.1165-.2618 0-.3676-.5948-.2912-1.2135-.0058-1.5663.2305-.285.6298-.1917 1.0098.0234 1.413-2.7966 3.9574-6.2425 6.6347-9.3242v-.002c.2112-.3629.4512-.7497.4512-1.3242 0-.7956.7956-2.3918 1.7676-3.5469.9719-1.155 1.975-2.9492 2.2285-3.9883.0694-.2845.3459-.6341.4844-.9785-1.2072 1.1983-2.4826 2.6053-3.6895 4.1114-5.86 7.3126-5.596 7.4404-7.1562 3.5761-2.0775 1.7366-4.2364 2.1473-4.2364.7012 0-.5234.4992-1.9526 1.1094-3.1758.6102-1.2231.915-2.8344.6777-3.582-.2372-.7476-.0728-1.58.3633-1.8496.442-.273.6036-1.2379.3672-2.1797-.3559-1.4181-.1605-1.6895 1.2148-1.6895.8318 0 1.1097.339 1.5704.5723 2.9298-7.3727 1.5004-11.8-2.7383-11.7402zm1.623 4.6875c.6156 0 .9937.3782.8399.8398-.4368 1.3106-1.959 1.5274-1.959.2793 0-.6155.5037-1.1191 1.1191-1.1191zm-10.5918.2695c.27-.0193.5453.0688.7813.3047.5111.5111.4216.9984-.291 1.5898-.7593.6301-1.1568.6418-1.5235.0489-.5343-.8646.2232-1.8854 1.0332-1.9434zm30.8828 1.3145c-1.0001 2.0574-2.169 3.6905-3.4277 4.666l-.002.002c-.8846 1.7108-1.89 3.6403-2.625 4.8183-.6882 1.1031-.8986 1.7578-1.1347 2.4082 1.8196-1.2865 2.785-1.2612 1.9375 1.039-.2533.6875-1.4847 4.4-2.7363 8.25-1.2516 3.85-2.892 7.7093-3.6446 8.5762-1.1603 1.3365-1.1349 2.363.168 6.75.073.2456.1295.4206.1973.6465.0871.0493.1307.03.2265.0898.7625.4762 1.891.8653 2.5078.8653.6863 0 1.0303.4794.8868 1.2363-.1783.94-1.107 1.3974-2.1875 1.414 1.034 1.31 2.565.4356 6.828-2.078 6.1954-3.653 6.6146-3.6756 7.4356-.4043.6718 2.6766-.76 5.4042-2.836 5.4042-.6356 0-4.35 1.5295-8.2538 3.4004-7.0352 3.3715-7.1138 3.3843-9.045 1.4532-3.3335-3.3336-5.2678 4.2767-2.6835 10.5605 2.3242 5.6511 2.6688 5.6572 6.5586.1387 3.613-5.126 3.7322-5.105 13.8242 2.3144 7.3388 5.3952 9.069 5.5094 9.2656-3.8105-.672 1.1415-1.4517 2.2832-1.9043 2.2832-.3625 0-.8493-.4953-1.082-1.1016-.395-1.0296 1.5722-3.2033 2.9941-3.9843-.0038-.9745 0-1.8727-.0195-3.004-.1041-6.0433 2.9961-10.0843 6.5332-10.4843-.1887-.0027-.3623-.0157-.5547-.0157-6.3846 0-6.3843 0-5.6934-5.125.5483-4.0666.72-5.4794 1.7266-6.164-.5066-.3857-.7393-1.0338-.4668-1.7442.2253-.5871.3644-.8824.586-.8925.2215-.0102.5247.2649 1.0761.8164.4617.4617.3586.8533.3555 1.2539.3408-.0764.7228-.152 1.164-.2403 1.6417-.3283 2.5546-1.0654 2.8848-1.9316-.4923.0027-1.0042-.1494-1.3086-.6406v-.002c-.2555-.4107-1.3088-.5755-2.3398-.3672-2.1382.4321-6.282-2.417-5.457-3.752.1522-.2462 1.027-.2582 1.6171-.3866-.2187-.1475-.377-.3146-.377-.504 0-1.2025-2.8676-4.0703-4.0702-4.0703-.5107 0-.9297 1.8156-.9297 4.0352 0 3.8487-.214 4.128-4.6406 6.0254a84.9395 84.9395 0 0 1-1.4844.6191c.1396.0314.3649-.0589.4414.0176.2348.2349-.1827.4018-.9277.3711-.2714-.0112-.0145-.1031-.1407-.1406-3.6462 1.408-3.5444.484-1.7129-5.1133.3176-.9705.6435-1.8683.9746-2.7344-.0684-.1111-.3652-.2236-.3652-.3183 0-.4269.4469-.5168.7695-.711 2.564-6.2435 5.7652-9.7099 11.627-12.0742-.0357-.0184-.0447-.0054-.082-.0254-1.7493-.9362-4.787-.9542-5.3575-.0312-1.0387 1.6806-2.4746.6569-2.4746-1.7657 0-1.3605-.3138-2.4746-.6972-2.4746-.5548 0-1.3675-1.7203-1.9239-3.3632zm17.7813 41.4492c.4832.0069.9605.0166 1.42.041-.4772-.0791-.952-.094-1.42-.041zm1.42.041c1.524.2529 3.0608 1.176 4.4023 2.9434 2.3167 3.052 1.7485 6.25-1.1094 6.25-3.4728 0-3.165.9304 1.9746 5.9746 4.4745 4.3913 4.4745 4.3912 6 .7402 4.0077-9.592-.1072-15.3162-11.2676-15.9082zM6.8007 21.83c.4816.0677.5832.4837.4472 1.4394-.13.9144-.8102 1.7555-1.5293 1.8926-1.002.1912-1.2417-.1242-1.0605-1.3984.13-.9145.8103-1.7555 1.5293-1.8926.2505-.0478.4527-.0636.6133-.041zM58.58 45.2129c.046.2656.0493.5301.0039.7871.0458-.2569.0425-.5216-.004-.7871zm-13.8653 1.1543c.5831 0 1.0606.3183 1.0606.707 0 .3887-.4775.707-1.0606.707-.583 0-1.0605-.3183-1.0605-.707 0-.3887.4774-.707 1.0605-.707zm.8907 15.7578c.1464-.0218.303-.0106.4629.0313.6392.1673 1.3142.8256 1.457 1.8261.2175 1.5246-1.139 2.2028-2.2285 1.1133-.2592-.2592-.4707-1.0791-.4707-1.8203 0-.7223.34-1.085.7793-1.1504zm-4.8399 3.0156c1.6154-.069 2.8477.7613 2.8477 2.795 0 2.376-.5392 4.8595-1.1992 5.5195-2.0655 2.0655-9.5306.4968-8.9688-1.8848.8733-3.7016 4.628-6.3145 7.3203-6.4297zm-9.0156 5.373c.5831 0 1.0605.4776 1.0605 1.0606 0 1.1038-.8352 1.4012-1.6484.588-.8133-.8134-.5158-1.6485.5879-1.6485zM141.8125 13.5879a70.1327 70.1327 0 0 1 2.5254.0644c-.8022-.0329-1.6357-.0576-2.5254-.0644zm-2.746.0332c-.6912.0123-1.3674.0224-2.0938.0469-.4545.1839-.9165.3704-1.2657.5117-.6815.2757-.9393.023-.9707-.4121-.4837.023-.942.0368-1.4375.0644.9123.147.0992 4.1896-1.1425 5.4922-.5148.54-1.4686.7753-2.125.5235-1.1011-.4226-1.107-.5882-.0567-2.1914 1.3681-2.0875 1.4525-3.1993.2422-3.1993-.6453 0-5.3248 4.5085-9.6621 8.9375.5438.5309 1.0358 1.1598 1.4785 1.8965.662-.67 1.132-1.2932 1.6387-1.7734 1.19-1.1278 2.0285-1.742 2.7265-1.8828.6981-.141 1.2558.1909 1.8868.9511 1.1009 1.3265-.1859 3.1817-2.207 3.1817-.848 0-1.3263.5013-1.3263 1.3886 0 .5735-.622 1.1536-1.1933 1.6602 1.508 4.813 2.0566 12.0284 2.0566 21.9707 0 14.6246.003 20.6433-1.5527 23.125.3216.1676.648.3043.955.791.6145.974.4553 1.5467-.7773 2.7793-1.3514 1.3513-1.6101 1.4046-1.9902.414-.3679-.9585-.3662-1.802-.2207-2.535-.4652.1261-.974.2098-1.5684.248-1.092 1.2551-2.3036 1.2646-3.3789.0508-4.6893.0168-4.3567.3096 2.625 5.496 4.0726 3.0254 7.8552 5.354 8.4063 5.1739 1.7274-.565 3.0677-13.5208 3.6386-27.4746-.2226.5743-.4223 1.1283-1.2988 2.0879-1.865 2.042-4.2851 3.0618-4.2851 1.8066 0-.2614.556-1.6958 1.2363-3.1875.9938-2.179 1.5752-2.6748 2.9512-2.5273.948.1015 1.2154.4506 1.4394.83.0323-.8453.0596-1.683.086-2.5312-.1287-.1225-.4524-.0788-.5137-.2383-.4028-1.0498-.034-1.9007.5898-2.4922.2143-9.0939.069-17.8213-.5332-23.2265-.0904.1547-1.0175.8836-1.0175.9707 0 1.207-2.3572 3.1933-3.7891 3.1933-.6619 0-1.3883-.48-1.6133-1.0664-.244-.636.4778-1.9732 1.789-3.3144 1.2092-1.2367 2.1993-2.5074 2.1993-2.8223 0-.1602.933-1.0721 1.4746-1.6914-.0565-.122-.1101-.2642-.17-.3555-.9246-1.4112-1.6825-2.6928-1.6835-2.8496-.0006-.0901 2.1072-.1102 4.9941-.0918.7446-.7184 1.754-1.681 1.9942-1.9258.447-.4558 1.5642-1.5922 2.4843-2.5254 1.1791-1.1957 1.4258-2.6066.9805-3.2773zm-8.5997 11.0254c.4021.8677.7136 2.5447.957 4.7305-.2434-2.1856-.555-3.8628-.957-4.7305zm-6.9082 4.17zm-1.5254-3.5255c.1725.287.3362.5952.4941.914-.1581-.3195-.3215-.6267-.4941-.914zm11.2656-11.459a215.8374 215.8374 0 0 0-5.1523.3496c1.767-.14 3.489-.2569 5.1523-.3496zm-5.1523.3496a265.6396 265.6396 0 0 0-5.42.4883 259.6493 259.6493 0 0 1 5.42-.4883zm-5.42.4883c-1.0432.1048-2.1036.2282-3.16.3457-.0568.0564-.0567.0917-.1153.1485-1.3606 1.3187-2.4746 2.8213-2.4746 3.3379 0 .5163-.7152 1.215-1.5899 1.5527-.3818.1474-1.0707.8663-1.5996 1.248.9832-.0803 1.8876-.0461 2.7246.0918.3354-.4054 1.1719-.9468 1.1719-1.1953 0-1.1696 3.1046-4.3132 5.043-5.5293zm-3.16.3457zm-5.3653.6446c-19.0599 2.4572-37.877 6.6391-37.0586 9.996.1687.6921.3713 1.3108.5898 1.8965.3484-.114.7296-.2344 1.0899-.0117.6656.4113.296 1.244-.3946 1.539 1.4945 2.6939 3.832 3.7652 7.3086 3.2403.0614-.0953-.1144-.2196-.0175-.3164.488-.488 1.2348-.5494 1.8593-.3223.0857.0312.0742.1518.1543.1934 2.3038-.6479 5.0086-1.8287 8.2051-3.5742 3.5933-1.9622 6.7647-3.5313 9.5762-4.6934.6947-1.7952 1.2219-2.4028 2.4863-2.3144 1.2518.0874 1.969-.3983 2.584-1.748.4677-1.0267 2.1224-2.5018 3.6172-3.8848zM85.7363 32.3203c.6176-.0932 1.2778-.2442 1.9688-.4375-.691.1934-1.3514.3443-1.9688.4375zm-7.3086-3.2402c-.2558-.4612-.4875-.9704-.6953-1.5274.2078.557.4395 1.0662.6953 1.5274zm66.1055-15.418c.7643.0359 1.492.0824 2.17.1426a49.1525 49.1525 0 0 0-2.17-.1426zm2.1758.1426c-1.5505 1.0338-4.2871 3.838-4.2871 4.6816 0 .4291-1.1294 1.6857-2.5078 2.793-.0968.0777-.074.0847-.17.1621.5162.0112.836.0084 1.3692.0215 13.566.3333 14.5272-.1554 11.4902-5.83-.5134-.9593-2.6647-1.5412-5.8945-1.8282zm-42.455 6.3066c.3886 0 .707.3183.707.707 0 .3888-.3184.707-.707.707-.3889 0-.7071-.3182-.7071-.707 0-.3887.3183-.707.707-.707zm8.791 1.2754zM110.1015 22c-.0747.0206-.1493.041-.2247.0625.0753-.0215.15-.0419.2247-.0625zm8.5449.0586c.0309.015.0631.0275.0937.043-.0307-.0153-.0628-.0281-.0937-.043zm.955.5566c.0314.0218.0648.0402.0958.0625-.0311-.0222-.0644-.0408-.0957-.0625zm-36.5507.3243c.3887 0 .707.3183.707.707 0 .3887-.3183.705-.707.705-.3888 0-.707-.3163-.707-.705 0-.3887.3182-.707.707-.707zm39.6582 3.6543zm-19.6367 3.3222c.0462.0832.0579.2428.0508.4512.0069-.208-.0018-.375-.0508-.4512zm.0508.4707c-.015.1244-.0103.2198-.0352.3438.0129-.1163.0314-.2517.0352-.3438zm12.619.0703a11.732 11.732 0 0 0-1.6073.045c-.0054.6952-.8853 1.5344-5.3106 5.0546-.4018.3196-1.5944.7975-2.6504 1.0625-1.6787.4214-1.9199.275-1.9199-1.1699 0-.3215.3182-.7806.5234-1.1914-1.9262.6619-2.31-.0307-1.914-2.1016.0241-.1263.0255-.1767.0469-.293-.3861.8343-.8415 1.932-1.041 2.5567-.2908.9102-2.6116 2.5844-4.2755 3.3906-1.907 5.2267-1.7405 11.3509.5801 15.5606.0362-.0015.046-.043.082-.043 1.2236 0 1.5423-.3167 1.2891-1.2851-.3932-1.5035.789-2.6533 3.4004-3.3086.7736-.1942 1.3634-.2292 1.7695-.1309 1.2185.295.7726 1.7887-1.4082 3.7871-1.422 1.3033-2.5859 2.7457-2.5859 3.2051 0 .0898-.3646.3359-.4277.4785.9873.8838 1.916 1.2927 2.203.875.3409-.496 2.6444-1.4145 5.1192-2.041 15.655-3.9628 14.2467-3.1247 13.5117-8.0293-.51-3.4003-.275-4.8259 1.0333-6.2715 3.1485-3.479 1.5837-7.0758-1.8301-8.912-1.8835 2.1705-2.562 4.6737-.5254 4.6737.9497 0 1.4121.471 1.4121 1.4356 0 1.9227-2.0823 2.6583-3.1992 1.1308-.803-1.098-.9091-1.1006-1.3164-.039-.318.8287-.9429 1.0316-2.2051.7148-1.8495-.4642-2.2878.1888-.9942 1.4825.9039.9038.607 3.918-.412 4.1796-.3888.0998-1.4223-.1616-2.297-.582-.1365-.0656-.1095-.163-.2285-.2344-.4488.511-.9402.9813-1.455 1.3711.612-.066 1.5058.4891 1.5058 1.1836 0 .9032-1.219.8438-1.7949-.0879-.189-.3058-.1252-.5844-.0664-.834-.2638.1763-.5304.3346-.795.4551-3.2853 1.497-3.3437 1.472-3.3437-1.4062 0-2.062 3.9432-5.1201 6.293-5.4551-.0074-.0317.0257-.026.0176-.0586-.3043-1.2124.0072-2.1565 1.043-3.1953.8111-.8111 1.4746-1.641 1.4746-1.8457 0-.1524 2.3591-2.5114 3.6757-3.9785-.4489-.0741-.9071-.1286-1.377-.1485zM98.1739 53.371c.4437.805.9639 1.541 1.5645 2.1856-.6006-.6445-1.1208-1.3807-1.5645-2.1855zm-.58-15.5605c.151-.4139.3143-.8228.4902-1.2246-.1775.4017-.339.8101-.4903 1.2246zm16.541-7.3085c-.3584.0341-.7197.0895-1.082.1582.3622-.0686.7237-.1241 1.082-.1582zm2.9902.1054c.1435.0238.2813.0567.4219.086-.141-.029-.2783-.0622-.4219-.086zm-4.2598.0899c-.3656.0754-.7311.1647-1.0976.2773.3658-.1122.7326-.2022 1.0976-.2773zm5.4297.1797c.3525.101.6941.2185 1.0235.3515-.3315-.1315-.669-.252-1.0235-.3515zm-6.5761.1132c-.3428.107-.6844.2358-1.0254.377.3412-.1412.6824-.2702 1.0254-.377zm7.8925.3555c.2456.108.4842.2237.7149.3477a9.4506 9.4506 0 0 0-.7149-.3477zm-9.1562.1211c-.357.1567-.7125.327-1.0645.5234.352-.1965.7075-.3668 1.0645-.5234zm-3.5528 1.8477zm-7.543.8574c-.1723.2718-.3283.5555-.4863.8379.1568-.2831.3149-.5655.4864-.838zm-.6738 1.1699c-.186.3495-.357.7077-.5214 1.0703.1632-.3633.337-.72.5214-1.0703zm12.5723 4.3047c.2114-.0046.4056.018.5762.0722-.1706-.0541-.3648-.0768-.5762-.0722zm1.0137.332c.0611.0612.1063.1357.1445.2149-.038-.0794-.0832-.1536-.1445-.2149zm.1738.2832c.0138.0362.0195.0781.0293.1172-.0097-.0394-.0155-.0808-.0293-.1172zm.0684.4297zm-.123.7305c-.0581.2006-.1396.4141-.2364.6328a5.0022 5.0022 0 0 0 .2363-.6328zm-.4083.9902c-.0727.1416-.1588.2872-.2441.4316.0863-.1448.1705-.2897.2441-.4316zm-.7949 1.2617c-.0517.0706-.1023.1409-.1563.211.0542-.0702.1043-.1402.1563-.211zm16.748 28.0352c.3888 0 .812.3182.9414.707.1297.3887-.2934.707-.9413.707-.648 0-1.073-.3183-.9434-.707.1295-.3888.5546-.707.9434-.707zm-5.2187 3.3965c-.036.0172-.0705.0366-.1074.0527.037-.016.0712-.0357.1074-.0527zm-2.2617.5039c-.7346.0469-1.5727.0469-2.5313.0469.9584 0 1.7968 0 2.5313-.047z"/></svg>