<?xml version="1.0" encoding="UTF-8" standalone="no"?>
<!-- Created with Inkscape (http://www.inkscape.org/) -->

<svg
   xmlns:dc="http://purl.org/dc/elements/1.1/"
   xmlns:cc="http://creativecommons.org/ns#"
   xmlns:rdf="http://www.w3.org/1999/02/22-rdf-syntax-ns#"
   xmlns:svg="http://www.w3.org/2000/svg"
   xmlns="http://www.w3.org/2000/svg"
   xmlns:sodipodi="http://sodipodi.sourceforge.net/DTD/sodipodi-0.dtd"
   xmlns:inkscape="http://www.inkscape.org/namespaces/inkscape"
   width="210mm"
   height="297mm"
   viewBox="0 0 210 297"
   version="1.1"
   id="svg8"
   inkscape:version="0.92.2 (5c3e80d, 2017-08-06)"
   sodipodi:docname="nftsuite.svg">
  <defs
     id="defs2" />
  <sodipodi:namedview
     id="base"
     pagecolor="#ffffff"
     bordercolor="#666666"
     borderopacity="1.0"
     inkscape:pageopacity="0.0"
     inkscape:pageshadow="2"
     inkscape:zoom="0.49497475"
     inkscape:cx="181.26923"
     inkscape:cy="816.75152"
     inkscape:document-units="mm"
     inkscape:current-layer="layer1"
     showgrid="false"
     inkscape:snap-global="true"
     inkscape:window-width="1920"
     inkscape:window-height="1017"
     inkscape:window-x="-8"
     inkscape:window-y="-8"
     inkscape:window-maximized="1" />
  <metadata
     id="metadata5">
    <rdf:RDF>
      <cc:Work
         rdf:about="">
        <dc:format>image/svg+xml</dc:format>
        <dc:type
           rdf:resource="http://purl.org/dc/dcmitype/StillImage" />
        <dc:title></dc:title>
      </cc:Work>
    </rdf:RDF>
  </metadata>
  <g
     inkscape:label="Layer 1"
     inkscape:groupmode="layer"
     id="layer1">
    <g
       id="g6345">
      <rect
         y="-13.989882"
         x="-29.601627"
         height="98.810669"
         width="297.84525"
         id="rect4504"
         style="opacity:1;vector-effect:none;fill:#f9f9f9;fill-opacity:1;fill-rule:nonzero;stroke:none;stroke-width:1.00012505;stroke-linecap:butt;stroke-linejoin:round;stroke-miterlimit:4;stroke-dasharray:none;stroke-dashoffset:0;stroke-opacity:1;paint-order:normal" />
      <path
         inkscape:connector-curvature="0"
         id="rect4945"
         d="m 115.95311,33.787443 -5.18373,2.993944 -5.18607,2.993972 5.18607,2.991573 5.18373,2.993915 v -4.318583 h 17.10559 v -3.336238 h -17.10559 z"
         style="opacity:1;vector-effect:none;fill:#9d2b2b;fill-opacity:1;fill-rule:nonzero;stroke:none;stroke-width:5.9213748;stroke-linecap:butt;stroke-linejoin:round;stroke-miterlimit:4;stroke-dasharray:none;stroke-dashoffset:0;stroke-opacity:1;paint-order:normal" />
      <path
         style="opacity:1;vector-effect:none;fill:#9d2b2b;fill-opacity:1;fill-rule:nonzero;stroke:none;stroke-width:5.9213748;stroke-linecap:butt;stroke-linejoin:round;stroke-miterlimit:4;stroke-dasharray:none;stroke-dashoffset:0;stroke-opacity:1;paint-order:normal"
         d="m 122.68891,57.076214 5.18373,-2.993972 5.18606,-2.993944 -5.18606,-2.991602 -5.18373,-2.993915 v 4.318583 h -17.1056 v 3.336238 h 17.1056 z"
         id="path4950"
         inkscape:connector-curvature="0" />
      <g
         transform="matrix(2.8550726,0,0,2.8550726,24.696988,-385.76077)"
         id="g5485"
         style="stroke-width:0.35025382">
        <g
           id="g5014"
           transform="translate(13.664448,4.0588964)"
           style="stroke-width:0.35025382">
          <path
             id="path4727"
             style="opacity:1;vector-effect:none;fill:#df8a8a;fill-opacity:1;fill-rule:nonzero;stroke:none;stroke-width:2.07398391;stroke-linecap:butt;stroke-linejoin:round;stroke-miterlimit:4;stroke-dasharray:none;stroke-dashoffset:0;stroke-opacity:1;paint-order:normal"
             d="m 5.129533,140.2343 v 3.87028 h 3.18326 v -3.87028 z m -0.85184,-2.38977 a 1.6916707,1.6916707 0 0 0 -1.690534,1.69053 v 4.81048 a 1.6916707,1.6916707 0 0 0 1.690534,1.69164 h 4.81047 a 1.6916707,1.6916707 0 0 0 1.69165,-1.69164 v -4.81048 a 1.6916707,1.6916707 0 0 0 -1.69165,-1.69053 z m 1.69164,3.38217 h 1.42719 v 1.4272 h -1.42719 z"
             inkscape:connector-curvature="0" />
          <path
             style="opacity:1;vector-effect:none;fill:#f4d9d9;fill-opacity:1;fill-rule:nonzero;stroke:none;stroke-width:2.07398391;stroke-linecap:butt;stroke-linejoin:round;stroke-miterlimit:4;stroke-dasharray:none;stroke-dashoffset:0;stroke-opacity:1;paint-order:normal"
             d="m 6.4953307,140.73046 v 1.02224 H 5.4730911 v 0.37652 h 1.0222396 v 1.02203 h 0.3765208 v -1.02203 H 7.8938749 V 141.7527 H 6.8718515 v -1.02224 z"
             id="path4729"
             inkscape:connector-curvature="0" />
        </g>
        <g
           id="g5042"
           transform="translate(13.664448,4.0588964)"
           style="stroke-width:0.35025382">
          <path
             id="path4733"
             style="opacity:1;vector-effect:none;fill:#df8a8a;fill-opacity:1;fill-rule:nonzero;stroke:none;stroke-width:2.07398391;stroke-linecap:butt;stroke-linejoin:round;stroke-miterlimit:4;stroke-dasharray:none;stroke-dashoffset:0;stroke-opacity:1;paint-order:normal"
             d="m -25.03298,150.28847 v 3.87028 h 3.18326 v -3.87028 z m -0.85184,-2.38977 a 1.6916707,1.6916707 0 0 0 -1.690534,1.69053 v 4.81048 a 1.6916707,1.6916707 0 0 0 1.690534,1.69164 h 4.81047 a 1.6916707,1.6916707 0 0 0 1.69165,-1.69164 v -4.81048 a 1.6916707,1.6916707 0 0 0 -1.69165,-1.69053 z m 1.69164,3.38217 h 1.42719 v 1.4272 h -1.42719 z"
             inkscape:connector-curvature="0" />
          <path
             style="opacity:1;vector-effect:none;fill:#f4d9d9;fill-opacity:1;fill-rule:nonzero;stroke:none;stroke-width:2.07398391;stroke-linecap:butt;stroke-linejoin:round;stroke-miterlimit:4;stroke-dasharray:none;stroke-dashoffset:0;stroke-opacity:1;paint-order:normal"
             d="m -23.659838,150.83187 v 0.98234 h -0.982338 v 0.36183 h 0.982338 v 0.98213 h 0.361824 v -0.98213 h 0.98213 v -0.36183 h -0.98213 v -0.98234 z"
             id="path4735"
             inkscape:connector-curvature="0" />
        </g>
        <g
           id="g5046"
           transform="translate(13.664448,4.0588964)"
           style="stroke-width:0.35025382">
          <path
             inkscape:connector-curvature="0"
             d="m -14.97881,150.28847 v 3.87028 h 3.18326 v -3.87028 z m -0.85184,-2.38977 a 1.6916707,1.6916707 0 0 0 -1.690534,1.69053 v 4.81048 a 1.6916707,1.6916707 0 0 0 1.690534,1.69164 h 4.81047 a 1.6916707,1.6916707 0 0 0 1.69165,-1.69164 v -4.81048 a 1.6916707,1.6916707 0 0 0 -1.69165,-1.69053 z m 1.69164,3.38217 h 1.42719 v 1.4272 h -1.42719 z"
             style="opacity:1;vector-effect:none;fill:#df8a8a;fill-opacity:1;fill-rule:nonzero;stroke:none;stroke-width:2.07398391;stroke-linecap:butt;stroke-linejoin:round;stroke-miterlimit:4;stroke-dasharray:none;stroke-dashoffset:0;stroke-opacity:1;paint-order:normal"
             id="path4739" />
          <path
             inkscape:connector-curvature="0"
             id="path4741"
             d="m -13.605668,150.83187 v 0.98234 h -0.982338 v 0.36183 h 0.982338 v 0.98213 h 0.361824 v -0.98213 h 0.98213 v -0.36183 h -0.98213 v -0.98234 z"
             style="opacity:1;vector-effect:none;fill:#f4d9d9;fill-opacity:1;fill-rule:nonzero;stroke:none;stroke-width:2.07398391;stroke-linecap:butt;stroke-linejoin:round;stroke-miterlimit:4;stroke-dasharray:none;stroke-dashoffset:0;stroke-opacity:1;paint-order:normal" />
        </g>
        <g
           id="g5050"
           transform="translate(13.664448,4.0588964)"
           style="stroke-width:0.35025382">
          <path
             id="path4745"
             style="opacity:1;vector-effect:none;fill:#df8a8a;fill-opacity:1;fill-rule:nonzero;stroke:none;stroke-width:2.07398391;stroke-linecap:butt;stroke-linejoin:round;stroke-miterlimit:4;stroke-dasharray:none;stroke-dashoffset:0;stroke-opacity:1;paint-order:normal"
             d="m -4.92464,150.28847 v 3.87028 h 3.18326 v -3.87028 z m -0.85184,-2.38977 a 1.6916707,1.6916707 0 0 0 -1.690534,1.69053 v 4.81048 a 1.6916707,1.6916707 0 0 0 1.690534,1.69164 h 4.81047 a 1.6916707,1.6916707 0 0 0 1.69165,-1.69164 v -4.81048 a 1.6916707,1.6916707 0 0 0 -1.69165,-1.69053 z m 1.69164,3.38217 h 1.42719 v 1.4272 h -1.42719 z"
             inkscape:connector-curvature="0" />
          <path
             style="opacity:1;vector-effect:none;fill:#f4d9d9;fill-opacity:1;fill-rule:nonzero;stroke:none;stroke-width:2.07398391;stroke-linecap:butt;stroke-linejoin:round;stroke-miterlimit:4;stroke-dasharray:none;stroke-dashoffset:0;stroke-opacity:1;paint-order:normal"
             d="m -3.5514979,150.83188 v 0.98233 h -0.982337 v 0.36183 h 0.982337 v 0.98213 h 0.3618235 v -0.98213 h 0.9821293 v -0.36183 h -0.9821293 v -0.98233 z"
             id="path4747"
             inkscape:connector-curvature="0" />
        </g>
        <g
           id="g5054"
           transform="translate(13.664448,4.0588964)"
           style="stroke-width:0.35025382">
          <path
             inkscape:connector-curvature="0"
             d="m 5.129533,150.28847 v 3.87028 h 3.18326 v -3.87028 z m -0.85184,-2.38977 a 1.6916707,1.6916707 0 0 0 -1.690534,1.69053 v 4.81048 a 1.6916707,1.6916707 0 0 0 1.690534,1.69164 h 4.81047 a 1.6916707,1.6916707 0 0 0 1.69165,-1.69164 v -4.81048 a 1.6916707,1.6916707 0 0 0 -1.69165,-1.69053 z m 1.69164,3.38217 h 1.42719 v 1.4272 h -1.42719 z"
             style="opacity:1;vector-effect:none;fill:#df8a8a;fill-opacity:1;fill-rule:nonzero;stroke:none;stroke-width:2.07398391;stroke-linecap:butt;stroke-linejoin:round;stroke-miterlimit:4;stroke-dasharray:none;stroke-dashoffset:0;stroke-opacity:1;paint-order:normal"
             id="path4751" />
          <path
             inkscape:connector-curvature="0"
             id="path4753"
             d="m 6.4953306,150.78463 v 1.02224 H 5.4730904 v 0.37652 h 1.0222402 v 1.02203 h 0.3765211 v -1.02203 h 1.0220239 v -0.37652 H 6.8718517 v -1.02224 z"
             style="opacity:1;vector-effect:none;fill:#f4d9d9;fill-opacity:1;fill-rule:nonzero;stroke:none;stroke-width:2.07398391;stroke-linecap:butt;stroke-linejoin:round;stroke-miterlimit:4;stroke-dasharray:none;stroke-dashoffset:0;stroke-opacity:1;paint-order:normal" />
        </g>
        <g
           id="g5038"
           transform="translate(13.664448,4.0588964)"
           style="stroke-width:0.35025382">
          <path
             inkscape:connector-curvature="0"
             d="m -25.03298,140.2343 v 3.87028 h 3.18326 v -3.87028 z m -0.85184,-2.38977 a 1.6916707,1.6916707 0 0 0 -1.690534,1.69053 v 4.81048 a 1.6916707,1.6916707 0 0 0 1.690534,1.69164 h 4.81047 a 1.6916707,1.6916707 0 0 0 1.69165,-1.69164 v -4.81048 a 1.6916707,1.6916707 0 0 0 -1.69165,-1.69053 z m 1.69164,3.38217 h 1.42719 v 1.4272 h -1.42719 z"
             style="opacity:1;vector-effect:none;fill:#d35f5f;fill-opacity:1;fill-rule:nonzero;stroke:none;stroke-width:2.07398391;stroke-linecap:butt;stroke-linejoin:round;stroke-miterlimit:4;stroke-dasharray:none;stroke-dashoffset:0;stroke-opacity:1;paint-order:normal"
             id="rect4516" />
          <g
             style="stroke-width:0.37660748"
             transform="matrix(0.93002344,0,0,0.93002344,-120.21546,9.7687081)"
             id="g4781">
            <text
               xml:space="preserve"
               style="font-style:normal;font-weight:normal;font-size:10.58333302px;line-height:1.25;font-family:sans-serif;letter-spacing:0px;word-spacing:0px;fill:#ffffff;fill-opacity:1;stroke:none;stroke-width:0.09964406"
               x="101.30585"
               y="142.56781"
               id="text4761"><tspan
                 sodipodi:role="line"
                 x="101.30585"
                 y="142.56781"
                 style="font-style:normal;font-variant:normal;font-weight:normal;font-stretch:normal;font-size:4.23333311px;line-height:1;font-family:'League Gothic';-inkscape-font-specification:'League Gothic';fill:#ffffff;stroke-width:0.09964406"
                 id="tspan4767">TKN1</tspan></text>
            <text
               xml:space="preserve"
               style="font-style:normal;font-weight:normal;font-size:9.01646709px;line-height:1.25;font-family:sans-serif;letter-spacing:0px;word-spacing:0px;fill:#ffd5d5;fill-opacity:1;stroke:none;stroke-width:0.09964406"
               x="102.75357"
               y="144.77771"
               id="text4775"><tspan
                 sodipodi:role="line"
                 id="tspan4773"
                 x="102.75357"
                 y="144.77771"
                 style="font-style:normal;font-variant:normal;font-weight:normal;font-stretch:normal;font-size:2.40439153px;font-family:'League Gothic';-inkscape-font-specification:'League Gothic';fill:#ffd5d5;stroke-width:0.09964406">NFT</tspan></text>
          </g>
        </g>
        <g
           id="g5030"
           transform="translate(13.664448,4.0588964)"
           style="stroke-width:0.35025382">
          <path
             id="path4715"
             style="opacity:1;vector-effect:none;fill:#d35f5f;fill-opacity:1;fill-rule:nonzero;stroke:none;stroke-width:2.07398391;stroke-linecap:butt;stroke-linejoin:round;stroke-miterlimit:4;stroke-dasharray:none;stroke-dashoffset:0;stroke-opacity:1;paint-order:normal"
             d="m -14.97881,140.2343 v 3.87028 h 3.18326 v -3.87028 z m -0.85184,-2.38977 a 1.6916707,1.6916707 0 0 0 -1.69054,1.69053 v 4.81048 a 1.6916707,1.6916707 0 0 0 1.69054,1.69164 h 4.81047 a 1.6916707,1.6916707 0 0 0 1.69165,-1.69164 v -4.81048 a 1.6916707,1.6916707 0 0 0 -1.69165,-1.69053 z m 1.69164,3.38217 h 1.42719 v 1.4272 h -1.42719 z"
             inkscape:connector-curvature="0" />
          <g
             style="stroke-width:0.38414514"
             transform="matrix(0.91177465,0,0,0.91177465,-117.67732,11.937653)"
             id="g4803">
            <text
               id="text4787"
               y="143.05034"
               x="111.36002"
               style="font-style:normal;font-weight:normal;font-size:10.58333302px;line-height:1.25;font-family:sans-serif;letter-spacing:0px;word-spacing:0px;fill:#ffffff;fill-opacity:1;stroke:none;stroke-width:0.1016384"
               xml:space="preserve"><tspan
                 id="tspan4785"
                 style="font-style:normal;font-variant:normal;font-weight:normal;font-stretch:normal;font-size:4.23333311px;line-height:1;font-family:'League Gothic';-inkscape-font-specification:'League Gothic';fill:#ffffff;stroke-width:0.1016384"
                 y="143.05034"
                 x="111.36002"
                 sodipodi:role="line">TKN2</tspan></text>
            <text
               id="text4791"
               y="145.26024"
               x="113.07868"
               style="font-style:normal;font-weight:normal;font-size:9.01646709px;line-height:1.25;font-family:sans-serif;letter-spacing:0px;word-spacing:0px;fill:#ffd5d5;fill-opacity:1;stroke:none;stroke-width:0.1016384"
               xml:space="preserve"><tspan
                 style="font-style:normal;font-variant:normal;font-weight:normal;font-stretch:normal;font-size:2.40439153px;font-family:'League Gothic';-inkscape-font-specification:'League Gothic';fill:#ffd5d5;stroke-width:0.1016384"
                 y="145.26024"
                 x="113.07868"
                 id="tspan4789"
                 sodipodi:role="line">NFT</tspan></text>
          </g>
        </g>
        <g
           id="g5022"
           transform="translate(13.664448,4.0588964)"
           style="stroke-width:0.35025382">
          <path
             inkscape:connector-curvature="0"
             d="m -4.92464,140.2343 v 3.87028 h 3.18326 v -3.87028 z m -0.85184,-2.38977 a 1.6916707,1.6916707 0 0 0 -1.69053,1.69053 v 4.81048 a 1.6916707,1.6916707 0 0 0 1.69053,1.69164 h 4.81047 a 1.6916707,1.6916707 0 0 0 1.69165,-1.69164 v -4.81048 a 1.6916707,1.6916707 0 0 0 -1.69165,-1.69053 z m 1.69164,3.38217 h 1.42719 v 1.4272 h -1.42719 z"
             style="opacity:1;vector-effect:none;fill:#d35f5f;fill-opacity:1;fill-rule:nonzero;stroke:none;stroke-width:2.07398391;stroke-linecap:butt;stroke-linejoin:round;stroke-miterlimit:4;stroke-dasharray:none;stroke-dashoffset:0;stroke-opacity:1;paint-order:normal"
             id="path4721" />
          <g
             style="stroke-width:0.37253553"
             transform="matrix(0.94018897,0,0,0.94018897,-120.40349,7.7132941)"
             id="g4825">
            <text
               xml:space="preserve"
               style="font-style:normal;font-weight:normal;font-size:10.58333302px;line-height:1.25;font-family:sans-serif;letter-spacing:0px;word-spacing:0px;fill:#ffffff;fill-opacity:1;stroke:none;stroke-width:0.0985667"
               x="121.17851"
               y="143.23431"
               id="text4809"><tspan
                 sodipodi:role="line"
                 x="121.17851"
                 y="143.23431"
                 style="font-style:normal;font-variant:normal;font-weight:normal;font-stretch:normal;font-size:4.23333311px;line-height:1;font-family:'League Gothic';-inkscape-font-specification:'League Gothic';fill:#ffffff;stroke-width:0.0985667"
                 id="tspan4807">0.003</tspan></text>
            <text
               xml:space="preserve"
               style="font-style:normal;font-weight:normal;font-size:9.01646709px;line-height:1.25;font-family:sans-serif;letter-spacing:0px;word-spacing:0px;fill:#ffd5d5;fill-opacity:1;stroke:none;stroke-width:0.0985667"
               x="123.27211"
               y="145.44421"
               id="text4813"><tspan
                 sodipodi:role="line"
                 id="tspan4811"
                 x="123.27211"
                 y="145.44421"
                 style="font-style:normal;font-variant:normal;font-weight:normal;font-stretch:normal;font-size:2.40439153px;font-family:'League Gothic';-inkscape-font-specification:'League Gothic';fill:#ffd5d5;stroke-width:0.0985667">ETH</tspan></text>
          </g>
        </g>
      </g>
      <g
         transform="matrix(2.8550726,0,0,2.8550726,24.696988,-385.76077)"
         id="g5447"
         style="stroke-width:0.35025382">
        <g
           id="g5060"
           transform="translate(69.415936,4.0588964)"
           style="stroke-width:0.35025382">
          <path
             inkscape:connector-curvature="0"
             d="m 5.129533,140.2343 v 3.87028 h 3.18326 v -3.87028 z m -0.85184,-2.38977 a 1.6916707,1.6916707 0 0 0 -1.690534,1.69053 v 4.81048 a 1.6916707,1.6916707 0 0 0 1.690534,1.69164 h 4.81047 a 1.6916707,1.6916707 0 0 0 1.69165,-1.69164 v -4.81048 a 1.6916707,1.6916707 0 0 0 -1.69165,-1.69053 z m 1.69164,3.38217 h 1.42719 v 1.4272 h -1.42719 z"
             style="opacity:1;vector-effect:none;fill:#df8a8a;fill-opacity:1;fill-rule:nonzero;stroke:none;stroke-width:2.07398391;stroke-linecap:butt;stroke-linejoin:round;stroke-miterlimit:4;stroke-dasharray:none;stroke-dashoffset:0;stroke-opacity:1;paint-order:normal"
             id="path5056" />
          <path
             inkscape:connector-curvature="0"
             id="path5058"
             d="m 6.4953307,140.73046 v 1.02224 H 5.4730911 v 0.37652 h 1.0222396 v 1.02203 h 0.3765208 v -1.02203 H 7.8938749 V 141.7527 H 6.8718515 v -1.02224 z"
             style="opacity:1;vector-effect:none;fill:#f4d9d9;fill-opacity:1;fill-rule:nonzero;stroke:none;stroke-width:2.07398391;stroke-linecap:butt;stroke-linejoin:round;stroke-miterlimit:4;stroke-dasharray:none;stroke-dashoffset:0;stroke-opacity:1;paint-order:normal" />
        </g>
        <g
           id="g5066"
           transform="translate(69.415936,4.0588964)"
           style="stroke-width:0.35025382">
          <path
             inkscape:connector-curvature="0"
             d="m -25.03298,150.28847 v 3.87028 h 3.18326 v -3.87028 z m -0.85184,-2.38977 a 1.6916707,1.6916707 0 0 0 -1.690534,1.69053 v 4.81048 a 1.6916707,1.6916707 0 0 0 1.690534,1.69164 h 4.81047 a 1.6916707,1.6916707 0 0 0 1.69165,-1.69164 v -4.81048 a 1.6916707,1.6916707 0 0 0 -1.69165,-1.69053 z m 1.69164,3.38217 h 1.42719 v 1.4272 h -1.42719 z"
             style="opacity:1;vector-effect:none;fill:#df8a8a;fill-opacity:1;fill-rule:nonzero;stroke:none;stroke-width:2.07398391;stroke-linecap:butt;stroke-linejoin:round;stroke-miterlimit:4;stroke-dasharray:none;stroke-dashoffset:0;stroke-opacity:1;paint-order:normal"
             id="path5062" />
          <path
             inkscape:connector-curvature="0"
             id="path5064"
             d="m -23.659838,150.83187 v 0.98234 h -0.982338 v 0.36183 h 0.982338 v 0.98213 h 0.361824 v -0.98213 h 0.98213 v -0.36183 h -0.98213 v -0.98234 z"
             style="opacity:1;vector-effect:none;fill:#f4d9d9;fill-opacity:1;fill-rule:nonzero;stroke:none;stroke-width:2.07398391;stroke-linecap:butt;stroke-linejoin:round;stroke-miterlimit:4;stroke-dasharray:none;stroke-dashoffset:0;stroke-opacity:1;paint-order:normal" />
        </g>
        <g
           id="g5072"
           transform="translate(69.415936,4.0588964)"
           style="stroke-width:0.35025382">
          <path
             id="path5068"
             style="opacity:1;vector-effect:none;fill:#df8a8a;fill-opacity:1;fill-rule:nonzero;stroke:none;stroke-width:2.07398391;stroke-linecap:butt;stroke-linejoin:round;stroke-miterlimit:4;stroke-dasharray:none;stroke-dashoffset:0;stroke-opacity:1;paint-order:normal"
             d="m -14.97881,150.28847 v 3.87028 h 3.18326 v -3.87028 z m -0.85184,-2.38977 a 1.6916707,1.6916707 0 0 0 -1.690534,1.69053 v 4.81048 a 1.6916707,1.6916707 0 0 0 1.690534,1.69164 h 4.81047 a 1.6916707,1.6916707 0 0 0 1.69165,-1.69164 v -4.81048 a 1.6916707,1.6916707 0 0 0 -1.69165,-1.69053 z m 1.69164,3.38217 h 1.42719 v 1.4272 h -1.42719 z"
             inkscape:connector-curvature="0" />
          <path
             style="opacity:1;vector-effect:none;fill:#f4d9d9;fill-opacity:1;fill-rule:nonzero;stroke:none;stroke-width:2.07398391;stroke-linecap:butt;stroke-linejoin:round;stroke-miterlimit:4;stroke-dasharray:none;stroke-dashoffset:0;stroke-opacity:1;paint-order:normal"
             d="m -13.605668,150.83187 v 0.98234 h -0.982338 v 0.36183 h 0.982338 v 0.98213 h 0.361824 v -0.98213 h 0.98213 v -0.36183 h -0.98213 v -0.98234 z"
             id="path5070"
             inkscape:connector-curvature="0" />
        </g>
        <g
           id="g5078"
           transform="translate(69.415936,4.0588964)"
           style="stroke-width:0.35025382">
          <path
             inkscape:connector-curvature="0"
             d="m -4.92464,150.28847 v 3.87028 h 3.18326 v -3.87028 z m -0.85184,-2.38977 a 1.6916707,1.6916707 0 0 0 -1.690534,1.69053 v 4.81048 a 1.6916707,1.6916707 0 0 0 1.690534,1.69164 h 4.81047 a 1.6916707,1.6916707 0 0 0 1.69165,-1.69164 v -4.81048 a 1.6916707,1.6916707 0 0 0 -1.69165,-1.69053 z m 1.69164,3.38217 h 1.42719 v 1.4272 h -1.42719 z"
             style="opacity:1;vector-effect:none;fill:#df8a8a;fill-opacity:1;fill-rule:nonzero;stroke:none;stroke-width:2.07398391;stroke-linecap:butt;stroke-linejoin:round;stroke-miterlimit:4;stroke-dasharray:none;stroke-dashoffset:0;stroke-opacity:1;paint-order:normal"
             id="path5074" />
          <path
             inkscape:connector-curvature="0"
             id="path5076"
             d="m -3.5514979,150.83188 v 0.98233 h -0.982337 v 0.36183 h 0.982337 v 0.98213 h 0.3618235 v -0.98213 h 0.9821293 v -0.36183 h -0.9821293 v -0.98233 z"
             style="opacity:1;vector-effect:none;fill:#f4d9d9;fill-opacity:1;fill-rule:nonzero;stroke:none;stroke-width:2.07398391;stroke-linecap:butt;stroke-linejoin:round;stroke-miterlimit:4;stroke-dasharray:none;stroke-dashoffset:0;stroke-opacity:1;paint-order:normal" />
        </g>
        <g
           id="g5084"
           transform="translate(69.415936,4.0588964)"
           style="stroke-width:0.35025382">
          <path
             id="path5080"
             style="opacity:1;vector-effect:none;fill:#df8a8a;fill-opacity:1;fill-rule:nonzero;stroke:none;stroke-width:2.07398391;stroke-linecap:butt;stroke-linejoin:round;stroke-miterlimit:4;stroke-dasharray:none;stroke-dashoffset:0;stroke-opacity:1;paint-order:normal"
             d="m 5.129533,150.28847 v 3.87028 h 3.18326 v -3.87028 z m -0.85184,-2.38977 a 1.6916707,1.6916707 0 0 0 -1.690534,1.69053 v 4.81048 a 1.6916707,1.6916707 0 0 0 1.690534,1.69164 h 4.81047 a 1.6916707,1.6916707 0 0 0 1.69165,-1.69164 v -4.81048 a 1.6916707,1.6916707 0 0 0 -1.69165,-1.69053 z m 1.69164,3.38217 h 1.42719 v 1.4272 h -1.42719 z"
             inkscape:connector-curvature="0" />
          <path
             style="opacity:1;vector-effect:none;fill:#f4d9d9;fill-opacity:1;fill-rule:nonzero;stroke:none;stroke-width:2.07398391;stroke-linecap:butt;stroke-linejoin:round;stroke-miterlimit:4;stroke-dasharray:none;stroke-dashoffset:0;stroke-opacity:1;paint-order:normal"
             d="m 6.4953306,150.78463 v 1.02224 H 5.4730904 v 0.37652 h 1.0222402 v 1.02203 h 0.3765211 v -1.02203 h 1.0220239 v -0.37652 H 6.8718517 v -1.02224 z"
             id="path5082"
             inkscape:connector-curvature="0" />
        </g>
        <path
           inkscape:connector-curvature="0"
           d="m 44.382956,144.2932 v 3.87028 h 3.18326 v -3.87028 z m -0.85184,-2.38977 a 1.6916707,1.6916707 0 0 0 -1.690534,1.69053 v 4.81048 a 1.6916707,1.6916707 0 0 0 1.690534,1.69164 h 4.81047 a 1.6916707,1.6916707 0 0 0 1.69165,-1.69164 v -4.81048 a 1.6916707,1.6916707 0 0 0 -1.69165,-1.69053 z m 1.69164,3.38217 h 1.42719 v 1.4272 h -1.42719 z"
           style="opacity:1;vector-effect:none;fill:#d35f5f;fill-opacity:1;fill-rule:nonzero;stroke:none;stroke-width:2.07398391;stroke-linecap:butt;stroke-linejoin:round;stroke-miterlimit:4;stroke-dasharray:none;stroke-dashoffset:0;stroke-opacity:1;paint-order:normal"
           id="path5086" />
        <g
           id="g5154"
           transform="translate(9.6543638,4.0588964)"
           style="stroke-width:0.35025382">
          <text
             xml:space="preserve"
             style="font-style:normal;font-weight:normal;font-size:9.84274769px;line-height:1.25;font-family:sans-serif;letter-spacing:0px;word-spacing:0px;fill:#ffffff;fill-opacity:1;stroke:none;stroke-width:0.09267132"
             x="33.532604"
             y="142.36011"
             id="text5090"><tspan
               sodipodi:role="line"
               x="33.532604"
               y="142.36011"
               style="font-style:normal;font-variant:normal;font-weight:normal;font-stretch:normal;font-size:3.93709898px;line-height:1;font-family:'League Gothic';-inkscape-font-specification:'League Gothic';fill:#ffffff;stroke-width:0.09267132"
               id="tspan5088">TKN3</tspan></text>
          <text
             xml:space="preserve"
             style="font-style:normal;font-weight:normal;font-size:8.3855257px;line-height:1.25;font-family:sans-serif;letter-spacing:0px;word-spacing:0px;fill:#ffd5d5;fill-opacity:1;stroke:none;stroke-width:0.09267132"
             x="35.109341"
             y="144.41537"
             id="text5094"><tspan
               sodipodi:role="line"
               id="tspan5092"
               x="35.109341"
               y="144.41537"
               style="font-style:normal;font-variant:normal;font-weight:normal;font-stretch:normal;font-size:2.23614049px;font-family:'League Gothic';-inkscape-font-specification:'League Gothic';fill:#ffd5d5;stroke-width:0.09267132">NFT</tspan></text>
        </g>
        <g
           transform="translate(59.361763,4.0588964)"
           id="g5132"
           style="stroke-width:0.35025382">
          <path
             id="path5128"
             style="opacity:1;vector-effect:none;fill:#df8a8a;fill-opacity:1;fill-rule:nonzero;stroke:none;stroke-width:2.07398391;stroke-linecap:butt;stroke-linejoin:round;stroke-miterlimit:4;stroke-dasharray:none;stroke-dashoffset:0;stroke-opacity:1;paint-order:normal"
             d="m 5.129533,140.2343 v 3.87028 h 3.18326 v -3.87028 z m -0.85184,-2.38977 a 1.6916707,1.6916707 0 0 0 -1.690534,1.69053 v 4.81048 a 1.6916707,1.6916707 0 0 0 1.690534,1.69164 h 4.81047 a 1.6916707,1.6916707 0 0 0 1.69165,-1.69164 v -4.81048 a 1.6916707,1.6916707 0 0 0 -1.69165,-1.69053 z m 1.69164,3.38217 h 1.42719 v 1.4272 h -1.42719 z"
             inkscape:connector-curvature="0" />
          <path
             style="opacity:1;vector-effect:none;fill:#f4d9d9;fill-opacity:1;fill-rule:nonzero;stroke:none;stroke-width:2.07398391;stroke-linecap:butt;stroke-linejoin:round;stroke-miterlimit:4;stroke-dasharray:none;stroke-dashoffset:0;stroke-opacity:1;paint-order:normal"
             d="m 6.4953307,140.73046 v 1.02224 H 5.4730911 v 0.37652 h 1.0222396 v 1.02203 h 0.3765208 v -1.02203 H 7.8938749 V 141.7527 H 6.8718515 v -1.02224 z"
             id="path5130"
             inkscape:connector-curvature="0" />
        </g>
        <g
           id="g5138"
           transform="translate(49.30759,4.0588964)"
           style="stroke-width:0.35025382">
          <path
             inkscape:connector-curvature="0"
             d="m 5.129533,140.2343 v 3.87028 h 3.18326 v -3.87028 z m -0.85184,-2.38977 a 1.6916707,1.6916707 0 0 0 -1.690534,1.69053 v 4.81048 a 1.6916707,1.6916707 0 0 0 1.690534,1.69164 h 4.81047 a 1.6916707,1.6916707 0 0 0 1.69165,-1.69164 v -4.81048 a 1.6916707,1.6916707 0 0 0 -1.69165,-1.69053 z m 1.69164,3.38217 h 1.42719 v 1.4272 h -1.42719 z"
             style="opacity:1;vector-effect:none;fill:#df8a8a;fill-opacity:1;fill-rule:nonzero;stroke:none;stroke-width:2.07398391;stroke-linecap:butt;stroke-linejoin:round;stroke-miterlimit:4;stroke-dasharray:none;stroke-dashoffset:0;stroke-opacity:1;paint-order:normal"
             id="path5134" />
          <path
             inkscape:connector-curvature="0"
             id="path5136"
             d="m 6.4953307,140.73046 v 1.02224 H 5.4730911 v 0.37652 h 1.0222396 v 1.02203 h 0.3765208 v -1.02203 H 7.8938749 V 141.7527 H 6.8718515 v -1.02224 z"
             style="opacity:1;vector-effect:none;fill:#f4d9d9;fill-opacity:1;fill-rule:nonzero;stroke:none;stroke-width:2.07398391;stroke-linecap:butt;stroke-linejoin:round;stroke-miterlimit:4;stroke-dasharray:none;stroke-dashoffset:0;stroke-opacity:1;paint-order:normal" />
        </g>
      </g>
      <text
         id="text5903"
         y="10.467427"
         x="15.747376"
         style="font-style:normal;font-weight:normal;font-size:13.07893467px;line-height:1.25;font-family:sans-serif;letter-spacing:0px;word-spacing:0px;fill:#9d2b2b;fill-opacity:1;stroke:none;stroke-width:0.26458332"
         xml:space="preserve"><tspan
           style="font-style:normal;font-variant:normal;font-weight:normal;font-stretch:normal;font-size:17.43857956px;font-family:'League Gothic';-inkscape-font-specification:'League Gothic';fill:#9d2b2b;fill-opacity:1;stroke-width:0.26458332"
           y="10.467427"
           x="15.747376"
           id="tspan5901"
           sodipodi:role="line">Address A</tspan></text>
      <text
         xml:space="preserve"
         style="font-style:normal;font-weight:normal;font-size:13.07893467px;line-height:1.25;font-family:sans-serif;letter-spacing:0px;word-spacing:0px;fill:#9d2b2b;fill-opacity:1;stroke:none;stroke-width:0.26458332"
         x="175.13118"
         y="10.467427"
         id="text5907"><tspan
           sodipodi:role="line"
           id="tspan5905"
           x="175.13118"
           y="10.467427"
           style="font-style:normal;font-variant:normal;font-weight:normal;font-stretch:normal;font-size:17.43857956px;font-family:'League Gothic';-inkscape-font-specification:'League Gothic';fill:#9d2b2b;fill-opacity:1;stroke-width:0.26458332">Address B</tspan></text>
    </g>
    <g
       id="g6409"
       inkscape:export-xdpi="96"
       inkscape:export-ydpi="96">
      <rect
         style="opacity:1;vector-effect:none;fill:#f9f9f9;fill-opacity:1;fill-rule:nonzero;stroke:none;stroke-width:1.00012505;stroke-linecap:butt;stroke-linejoin:round;stroke-miterlimit:4;stroke-dasharray:none;stroke-dashoffset:0;stroke-opacity:1;paint-order:normal"
         id="rect5983"
         width="297.84525"
         height="69.945557"
         x="-29.601627"
         y="122.15099" />
      <g
         transform="translate(-5.8490785,-4.3074753)"
         id="g6360">
        <path
           style="opacity:1;vector-effect:none;fill:#9d2b2b;fill-opacity:1;fill-rule:nonzero;stroke:none;stroke-width:5.9213748;stroke-linecap:butt;stroke-linejoin:round;stroke-miterlimit:4;stroke-dasharray:none;stroke-dashoffset:0;stroke-opacity:1;paint-order:normal"
           d="m 122.6889,178.01757 5.18373,-2.99397 5.18606,-2.99394 -5.18606,-2.9916 -5.18373,-2.99392 v 4.31858 h -17.1056 v 3.33624 h 17.1056 z"
           id="path5987"
           inkscape:connector-curvature="0" />
        <g
           transform="matrix(2.8550726,0,0,2.8550726,60.566481,-264.05244)"
           id="g6061"
           style="stroke-width:0.35025382">
          <g
             id="g6031"
             transform="translate(31.263535,10.798972)"
             style="stroke-width:0.35025382">
            <path
               inkscape:connector-curvature="0"
               d="m -25.03298,140.2343 v 3.87028 h 3.18326 v -3.87028 z m -0.85184,-2.38977 a 1.6916707,1.6916707 0 0 0 -1.690534,1.69053 v 4.81048 a 1.6916707,1.6916707 0 0 0 1.690534,1.69164 h 4.81047 a 1.6916707,1.6916707 0 0 0 1.69165,-1.69164 v -4.81048 a 1.6916707,1.6916707 0 0 0 -1.69165,-1.69053 z m 1.69164,3.38217 h 1.42719 v 1.4272 h -1.42719 z"
               style="opacity:1;vector-effect:none;fill:#d35f5f;fill-opacity:1;fill-rule:nonzero;stroke:none;stroke-width:2.07398391;stroke-linecap:butt;stroke-linejoin:round;stroke-miterlimit:4;stroke-dasharray:none;stroke-dashoffset:0;stroke-opacity:1;paint-order:normal"
               id="path6019" />
            <g
               style="stroke-width:0.37660748"
               transform="matrix(0.93002344,0,0,0.93002344,-120.21546,9.7687081)"
               id="g6029">
              <text
                 xml:space="preserve"
                 style="font-style:normal;font-weight:normal;font-size:10.58333302px;line-height:1.25;font-family:sans-serif;letter-spacing:0px;word-spacing:0px;fill:#ffffff;fill-opacity:1;stroke:none;stroke-width:0.09964406"
                 x="101.30585"
                 y="142.56781"
                 id="text6023"><tspan
                   sodipodi:role="line"
                   x="101.30585"
                   y="142.56781"
                   style="font-style:normal;font-variant:normal;font-weight:normal;font-stretch:normal;font-size:4.23333311px;line-height:1;font-family:'League Gothic';-inkscape-font-specification:'League Gothic';fill:#ffffff;stroke-width:0.09964406"
                   id="tspan6021">TKN1</tspan></text>
              <text
                 xml:space="preserve"
                 style="font-style:normal;font-weight:normal;font-size:9.01646709px;line-height:1.25;font-family:sans-serif;letter-spacing:0px;word-spacing:0px;fill:#ffd5d5;fill-opacity:1;stroke:none;stroke-width:0.09964406"
                 x="102.75357"
                 y="144.77771"
                 id="text6027"><tspan
                   sodipodi:role="line"
                   id="tspan6025"
                   x="102.75357"
                   y="144.77771"
                   style="font-style:normal;font-variant:normal;font-weight:normal;font-stretch:normal;font-size:2.40439153px;font-family:'League Gothic';-inkscape-font-specification:'League Gothic';fill:#ffd5d5;stroke-width:0.09964406">NFT</tspan></text>
            </g>
          </g>
        </g>
        <text
           id="text6121"
           y="151.95369"
           x="58.805458"
           style="font-style:normal;font-weight:normal;font-size:13.07893467px;line-height:1.25;font-family:sans-serif;letter-spacing:0px;word-spacing:0px;fill:#9d2b2b;fill-opacity:1;stroke:none;stroke-width:0.26458332"
           xml:space="preserve"><tspan
             style="font-style:normal;font-variant:normal;font-weight:normal;font-stretch:normal;font-size:17.43857956px;font-family:'League Gothic';-inkscape-font-specification:'League Gothic';fill:#9d2b2b;fill-opacity:1;stroke-width:0.26458332"
             y="151.95369"
             x="58.805458"
             id="tspan6119"
             sodipodi:role="line">Address A</tspan></text>
        <text
           xml:space="preserve"
           style="font-style:normal;font-weight:normal;font-size:13.07893467px;line-height:1.25;font-family:sans-serif;letter-spacing:0px;word-spacing:0px;fill:#9d2b2b;fill-opacity:1;stroke:none;stroke-width:0.26458332"
           x="143.9805"
           y="178.36978"
           id="text6125"><tspan
             sodipodi:role="line"
             id="tspan6123"
             x="143.9805"
             y="178.36978"
             style="font-style:normal;font-variant:normal;font-weight:normal;font-stretch:normal;font-size:17.43857956px;font-family:'League Gothic';-inkscape-font-specification:'League Gothic';fill:#9d2b2b;fill-opacity:1;stroke-width:0.26458332">Address B</tspan></text>
      </g>
    </g>
  </g>
</svg>
